<svg xmlns="http://www.w3.org/2000/svg" width="1440" height="584" viewBox="0 0 1440 584" fill="none">
  <path d="M-168 583L-156.542 579.497C-145.083 575.994 -122.167 568.988 -99.25 569.276C-76.3333 569.563 -53.4167 577.143 -30.5 574.698C-7.58334 572.253 15.3333 559.782 38.25 551.657C61.1667 543.532 84.0833 539.752 107 526.918C129.917 514.083 152.833 492.193 175.75 474.01C198.667 455.827 221.583 441.351 244.5 436.977C267.417 432.603 290.333 438.332 313.25 432.642C336.167 426.953 359.083 409.845 382 404.414C404.917 398.984 427.833 405.231 450.75 398.018C473.667 390.805 496.583 370.131 519.5 358.653C542.417 347.176 565.333 344.895 588.25 338.48C611.167 332.065 634.083 321.516 657 316.811C679.917 312.106 702.833 313.245 725.75 306.647C748.667 300.048 771.583 285.711 794.5 273.378C817.417 261.044 840.333 250.714 863.25 243.395C886.167 236.077 909.083 231.771 932 227.116C954.917 222.462 977.833 217.46 1000.75 207.098C1023.67 196.735 1046.58 181.013 1069.5 168.832C1092.42 156.651 1115.33 148.012 1138.25 139.642C1161.17 131.273 1184.08 123.173 1207 118.463C1229.92 113.754 1252.83 112.436 1275.75 100.369C1298.67 88.3012 1321.58 65.4839 1344.5 56.0179C1367.42 46.5519 1390.33 50.4373 1413.25 43.4929C1436.17 36.5485 1459.08 18.7742 1470.54 9.88711L1482 1" stroke="#8B1CB8" stroke-opacity="0.92"/>
</svg>