<svg xmlns="http://www.w3.org/2000/svg" width="24" height="24" viewBox="0 0 24 24" fill="none">
  <path d="M17.6316 7.13598C17.5146 7.07698 17.4016 7.01198 17.2906 6.94098C16.9706 6.73298 16.6766 6.48798 16.4156 6.21098C15.7636 5.47798 15.5196 4.73398 15.4296 4.21298H15.4336C15.3586 3.77998 15.3896 3.50098 15.3946 3.50098H12.4216V14.79C12.4216 14.942 12.4216 15.092 12.4156 15.24C12.4156 15.258 12.4136 15.275 12.4126 15.295C12.4126 15.303 12.4126 15.311 12.4106 15.32V15.326C12.3466 16.149 11.8706 16.886 11.1406 17.294C10.7656 17.503 10.3426 17.613 9.91064 17.613C8.52664 17.613 7.40364 16.503 7.40364 15.134C7.40364 13.764 8.52664 12.655 9.91064 12.655C10.1736 12.654 10.4336 12.695 10.6826 12.775L10.6866 9.80198C9.15664 9.60798 7.61464 10.051 6.43264 11.024C5.91964 11.462 5.48964 11.983 5.15964 12.566C5.03364 12.779 4.56064 13.632 4.50364 15.018C4.46764 15.805 4.70764 16.62 4.82264 16.956V16.964C4.89464 17.162 5.17364 17.839 5.62964 18.409C5.99664 18.867 6.43064 19.269 6.91664 19.602V19.595L6.92364 19.602C8.36264 20.563 9.95864 20.5 9.95864 20.5C10.2346 20.489 11.1596 20.5 12.2106 20.011C13.3756 19.468 14.0386 18.661 14.0386 18.661C14.4626 18.178 14.7996 17.628 15.0356 17.034C15.3046 16.34 15.3946 15.507 15.3946 15.174V9.18398C15.4306 9.20598 15.9106 9.51798 15.9106 9.51798C15.9106 9.51798 16.6026 9.95298 17.6816 10.237C18.4566 10.439 19.4996 10.481 19.4996 10.481V7.58298C19.1336 7.62198 18.3916 7.50798 17.6316 7.13598Z" fill="url(#paint0_linear_259_5138)"/>
  <defs>
    <linearGradient id="paint0_linear_259_5138" x1="11.9998" y1="3.50098" x2="11.9998" y2="20.5008" gradientUnits="userSpaceOnUse">
      <stop stop-color="white"/>
      <stop offset="1" stop-color="#D9EBFF"/>
    </linearGradient>
  </defs>
</svg>