<svg width="25" height="25" viewBox="0 0 25 25" fill="none" xmlns="http://www.w3.org/2000/svg">
<g id="ph:play-fill">
<path id="Vector" d="M18.8535 15.5793C18.854 15.7622 18.8065 15.942 18.7157 16.1013C18.6249 16.2607 18.4938 16.3941 18.3353 16.4886L8.5117 22.4208C8.34607 22.521 8.15638 22.5756 7.9622 22.5792C7.76803 22.5827 7.57642 22.535 7.40715 22.441C7.2395 22.3485 7.09984 22.2136 7.00254 22.0501C6.90523 21.8866 6.8538 21.7005 6.85352 21.5109V9.6478C6.8538 9.4582 6.90523 9.27209 7.00254 9.10861C7.09984 8.94513 7.2395 8.81019 7.40715 8.71766C7.57642 8.62366 7.76803 8.57598 7.9622 8.57953C8.15638 8.58308 8.34607 8.63773 8.5117 8.73785L18.3353 14.6701C18.4938 14.7646 18.6249 14.898 18.7157 15.0574C18.8065 15.2167 18.854 15.3965 18.8535 15.5793Z" fill="white"/>
</g>
</svg>
